<?xml version="1.0" encoding="utf-8"?>
<!-- Generator: Adobe Illustrator 27.8.1, SVG Export Plug-In . SVG Version: 6.00 Build 0)  -->
<svg version="1.1" xmlns="http://www.w3.org/2000/svg" xmlns:xlink="http://www.w3.org/1999/xlink" x="0px" y="0px"
	 viewBox="0 0 531.63 645.62" style="enable-background:new 0 0 531.63 645.62;" xml:space="preserve">
<style type="text/css">
	.st0{fill-rule:evenodd;clip-rule:evenodd;fill:#FFFFFF;}
	.st1{fill:#FFFFFF;}
</style>
<g id="UE-2023-VERTICAL-BLACK">
	<g>
		<g>
			<g>
				<path class="st0" d="M265.82,434.56c120,0,217.28-97.28,217.28-217.28S385.82,0,265.82,0S48.54,97.28,48.54,217.28
					S145.82,434.56,265.82,434.56z M321.39,338.08c53.13-25.09,69.79-71.44,73.54-89.5c-19.43,19.9-40.92,40.06-55.38,26.1
					c0,0-0.79-74.5-0.79-105.05c0-41.08,38.96-71.7,38.96-71.7c-21.43,3.81-47.15,11.45-74.46,38.25c-2.46,2.44-4.8,5.01-7,7.7
					c-11.7-8.96-26.87-6.27-26.87-6.27c8.19,4.5,16.38,17.61,16.38,28.47v106.69c0,0-17.87,15.72-31.64,15.72
					c-3.1,0.02-6.17-0.7-8.94-2.1c-2.77-1.4-5.16-3.45-6.98-5.96c-1.09-1.42-1.99-2.98-2.69-4.63V143.97
					c-4.07,3.36-17.83,6.13-17.83-16.71c0-14.19,10.22-31.1,28.43-41.47c-25,3.81-48.41,14.61-67.53,31.15
					c-14.53,12.56-26.15,28.13-34.05,45.63c-7.9,17.5-11.9,36.52-11.71,55.72c0,0,13.31-41.59,29.98-45.43
					c2.43-0.64,4.97-0.7,7.43-0.18c2.46,0.52,4.76,1.6,6.72,3.17c1.96,1.57,3.53,3.57,4.59,5.85c1.05,2.28,1.56,4.78,1.47,7.29
					v97.67c0,9.9-6.38,12.06-12.28,11.96c-4-0.28-7.94-1.02-11.77-2.22c12.17,16.48,27.99,29.92,46.22,39.27
					c18.23,9.35,38.37,14.36,58.86,14.63l36-36.19L321.39,338.08z"/>
			</g>
		</g>
	</g>
	<g>
		<path class="st1" d="M81.31,504.6v37c0,21.3-14.5,35.3-40.6,35.3S0,562.9,0,541.6v-37h20.4V540c0,12.2,6.8,20.1,20.3,20.1
			c13.5,0,20.2-7.9,20.2-20.1v-35.4H81.31z"/>
		<path class="st1" d="M177.66,504.6v70h-17.9l-45.2-46v46h-19.7v-70h21.6l41.5,42.8v-42.8H177.66z"/>
		<path class="st1" d="M251.6,574.6l-18.5-22.1h-20.6v22.1h-20.3v-70h49.1c17.9,0,31.8,7.9,31.8,23.9c0,11.7-7.4,19.1-18.4,22.3
			l20.6,23.8H251.6z M239.8,537.7c7.3,0,12.6-2,12.6-8.8c0-6.8-5.3-8.8-12.6-8.8h-27.4v17.6H239.8z"/>
		<path class="st1" d="M358.62,559v15.6h-74.71v-70h73.6v15.6h-53.5v11.5h44.1v14.9h-44.1V559H358.62z"/>
		<path class="st1" d="M429.53,561.2h-38.4l-6.6,13.4h-21.4l36.2-70h22.3l36.2,70h-21.7L429.53,561.2z M422.43,546.7l-12.1-24.8
			l-12.2,24.8H422.43z"/>
		<path class="st1" d="M531.63,558.2v16.4h-67.5v-70h20.4v53.6H531.63z"/>
	</g>
	<g>
		<path class="st1" d="M154.96,633.81v10.29h-49.3v-46.2h48.57v10.29h-35.31v7.59h29.1v9.83h-29.1v8.18H154.96z"/>
		<path class="st1" d="M217.12,597.91v46.2h-11.81l-29.83-30.36v30.36h-13v-46.2h14.25l27.39,28.25v-28.25H217.12z"/>
		<path class="st1" d="M281.27,635.39c-4.95,6.14-14.06,10.23-26.4,10.23c-18.94,0-30.69-8.97-30.69-24.62s11.75-24.62,30.69-24.62
			c11.42,0,19.67,4.03,24.48,8.51l-9.83,7.26c-3.96-3.56-8.12-5.15-14.32-5.15c-11.22,0-17.36,4.95-17.36,13.99
			c0,9.11,6.33,14.06,17.55,14.06c5.67,0,10.16-1.12,13.4-4.09v-4.16h-15.31v-9.44h27.78V635.39z"/>
		<path class="st1" d="M289.3,644.1v-46.2h13.46v46.2H289.3z"/>
		<path class="st1" d="M366.97,597.91v46.2h-11.81l-29.83-30.36v30.36h-13v-46.2h14.25l27.39,28.25v-28.25H366.97z"/>
		<path class="st1" d="M425.97,633.81v10.29h-49.3v-46.2h48.57v10.29h-35.31v7.59h29.1v9.83h-29.1v8.18H425.97z"/>
	</g>
</g>
<g id="GUIDES">
</g>
</svg>
