<svg viewBox="0 0 595.28 670.75" xmlns="http://www.w3.org/2000/svg" width="2219" height="2500"><g fill="#313131"><path d="M354.89 192.9l67.52-116.59 32.63 116.59-32.63 116.59zM322 211.78l67.52 116.59-117.64-30.11-85.01-86.49H322zm67.52-154.44L322 173.93H186.87l85.01-86.49 117.64-30.11zm96.41 95.88L444.68 0 290.93 41.07l-22.8 40.02-46.2-.35L109.34 192.9l112.59 112.16 46.2-.35 22.8 40.02 153.75 41.07 41.24-153.22-23.41-39.68 23.41-39.68M139.71 466.99H103.7v83.28c0 21.44-8.81 38.46-34.65 38.46-25.59.25-32.96-17.28-32.96-39.57v-82.18H0v91.33c0 26.35 9.32 64.05 58.88 64.31 27.2.25 40.67-12.96 47.02-24.74v20.08h33.81V466.98M154.03 617.97h36.01v-83.28c0-21.18 8.81-38.21 34.4-38.46 25.33 0 32.7 17.28 32.7 39.91v81.84h36.01v-90.99c0-26.69-9.32-64.31-58.54-64.64-26.94-.25-40.41 12.88-47.02 24.74.25-7.12.25-13.47.25-20.08h-33.81v150.98M306.96 466.99h36.01v150.98h-36.01zM306.96 446.65h36.01v-32.19h-36.01zM380.67 617.97h36.01V494.78h25.84l-10.68-27.79h-15.16v-52.53h-36.01v52.53h-25v27.79h25zM477.34 670.75h38.46l79.48-203.76h-38.47l-36.26 100.4-36.86-100.4h-38.46l56.93 145.22z"/></g></svg>