<?xml version="1.0" encoding="UTF-8"?>
<svg version="1.1" xmlns="http://www.w3.org/2000/svg" width="2000" height="2000">
<path d="M0 0 C1.2065625 0.0309375 1.2065625 0.0309375 2.4375 0.0625 C6.58211036 13.90365843 10.49340447 27.79944869 14.25 41.75 C14.46232269 42.5381308 14.67464539 43.3262616 14.8934021 44.13827515 C16.80897818 51.25266845 18.71802896 58.3688052 20.62011719 65.48681641 C26.81998338 88.68525912 33.29604278 111.79914188 39.85394287 134.89886475 C40.16897766 136.00860657 40.48401245 137.11834839 40.80859375 138.26171875 C41.12056702 139.36066467 41.43254028 140.4596106 41.75396729 141.59185791 C45.69540419 155.48425946 49.59165066 169.38893527 53.40917969 183.31591797 C54.08605374 185.78204075 54.76630375 188.24723983 55.45019531 190.71142578 C56.35310661 193.97132895 57.24169618 197.23473855 58.125 200.5 C58.381604 201.4182959 58.63820801 202.3365918 58.90258789 203.28271484 C59.23504517 204.5330249 59.23504517 204.5330249 59.57421875 205.80859375 C59.76717529 206.51685303 59.96013184 207.2251123 60.15893555 207.95483398 C60.83608236 213.07824192 58.74549453 216.60498584 56.11328125 220.8671875 C55.77460022 221.41948532 55.43591919 221.97178314 55.0869751 222.54081726 C54.35855876 223.72689768 53.62691803 224.91100283 52.8923645 226.09329224 C51.73906519 227.95515291 50.60116853 229.82567838 49.46655273 231.69897461 C45.77279661 237.77726866 41.99994062 243.76525721 37.984375 249.63671875 C36.97443481 251.15773193 36.97443481 251.15773193 35.9440918 252.70947266 C34.67602408 254.61117611 33.37132787 256.48910335 32.02661133 258.33740234 C30.29724385 260.97058343 29.11508772 262.98298066 28.4375 266.0625 C29.65363872 270.2740543 31.93378552 273.50228436 34.4375 277.0625 C35.42704551 278.71887496 36.40418095 280.38274351 37.3671875 282.0546875 C38.34648102 283.68378341 39.32828906 285.3113702 40.3125 286.9375 C40.83279785 287.80101074 41.3530957 288.66452148 41.88916016 289.55419922 C44.84102518 294.44599162 47.8155486 299.32321734 50.8125 304.1875 C51.42609375 305.19683594 52.0396875 306.20617188 52.671875 307.24609375 C53.83775422 309.10582586 55.05655505 310.93352581 56.328125 312.72265625 C56.90046875 313.55667969 57.4728125 314.39070313 58.0625 315.25 C58.57039062 315.94480469 59.07828125 316.63960937 59.6015625 317.35546875 C61.81694997 324.52959733 57.3621958 334.6011105 55.51171875 341.69140625 C55.21222824 342.84202042 54.91273773 343.99263458 54.60417175 345.17811584 C50.52199263 360.71661648 46.12961082 376.17015706 41.76501465 391.63113403 C39.19109925 400.7493144 36.62895314 409.87080698 34.06640625 418.9921875 C33.81612545 419.88280695 33.56584465 420.7734264 33.30797958 421.69103432 C29.38433228 435.65541798 25.49210258 449.62762192 21.6875 463.625 C21.46132996 464.45680786 21.23515991 465.28861572 21.00213623 466.14562988 C18.43922569 475.58274144 15.91003474 485.02879914 13.38671875 494.4765625 C13.13276337 495.42649582 12.87880798 496.37642914 12.61715698 497.35514832 C11.40684325 501.88286368 10.1992917 506.41126114 8.99902344 510.94165039 C7.01706499 518.39544104 5.02019064 525.78862702 2.4375 533.0625 C-1.58089869 533.43922488 -4.36834315 532.36610025 -8.07244873 530.93630981 C-13.20459971 529.13533329 -18.51551707 527.93391195 -23.7890625 526.62109375 C-25.08590762 526.29458525 -26.3826377 525.9676195 -27.67926025 525.64022827 C-30.42405355 524.94794024 -33.16948327 524.25826276 -35.91546631 523.57070923 C-42.39189159 521.94870512 -48.86449065 520.311537 -55.33736038 518.67541313 C-57.48014678 518.13388107 -59.62305165 517.59281956 -61.76596069 517.05177307 C-72.3376844 514.38103796 -82.89644514 511.66444795 -93.4375 508.875 C-94.15516541 508.68518555 -94.87283081 508.49537109 -95.61224365 508.29980469 C-100.08855655 507.11484305 -104.56350357 505.92478316 -109.03820801 504.73376465 C-113.87626626 503.44721876 -118.71558474 502.16542288 -123.5546875 500.8828125 C-157.28499807 491.94017858 -157.28499807 491.94017858 -168.14671326 489.03826904 C-169.69518765 488.6249677 -171.24389797 488.21254915 -172.79286194 487.80108643 C-176.34720053 486.85691927 -179.89825429 485.90351295 -183.44311523 484.92431641 C-189.22114637 483.34410469 -194.89430071 481.92294029 -200.84765625 481.17578125 C-213.27338105 479.49476017 -213.27338105 479.49476017 -217.52246094 474.97998047 C-221.43976386 469.6390521 -224.35576061 463.84400728 -227.19091797 457.87597656 C-229.16257931 453.83157903 -231.47066787 450.02518372 -233.8125 446.1875 C-238.55263519 438.2363055 -243.03664174 430.1366802 -247.5625 422.0625 C-248.73402367 422.11246376 -248.73402367 422.11246376 -249.92921448 422.16343689 C-257.35568324 422.46627948 -264.77909039 422.69345117 -272.21016026 422.83968258 C-276.02946008 422.91740538 -279.84358984 423.0224037 -283.65991211 423.1940918 C-310.3828194 424.36601642 -310.3828194 424.36601642 -317.92919922 418.69189453 C-321.2441112 415.63341813 -324.01535931 412.30693192 -326.48912048 408.5381012 C-327.50971665 406.89712811 -327.50971665 406.89712811 -329.5625 406.0625 C-329.5625 405.4025 -329.5625 404.7425 -329.5625 404.0625 C-330.15562988 403.79606689 -330.74875977 403.52963379 -331.35986328 403.25512695 C-333.60796376 402.03788346 -335.03320653 400.80850937 -336.8046875 398.98046875 C-337.39636719 398.37783203 -337.98804688 397.77519531 -338.59765625 397.15429688 C-339.20480469 396.52587891 -339.81195313 395.89746094 -340.4375 395.25 C-345.44756376 390.08073074 -345.44756376 390.08073074 -350.8359375 385.31640625 C-352.97559414 383.5476643 -354.63889911 381.99047377 -356.3125 379.8125 C-358.26881884 377.03890062 -358.26881884 377.03890062 -360.5625 376.0625 C-360.5625 375.4025 -360.5625 374.7425 -360.5625 374.0625 C-361.2225 374.0625 -361.8825 374.0625 -362.5625 374.0625 C-362.5625 373.4025 -362.5625 372.7425 -362.5625 372.0625 C-363.2225 372.0625 -363.8825 372.0625 -364.5625 372.0625 C-364.5625 371.4025 -364.5625 370.7425 -364.5625 370.0625 C-365.2225 370.0625 -365.8825 370.0625 -366.5625 370.0625 C-366.5625 369.4025 -366.5625 368.7425 -366.5625 368.0625 C-367.15039307 367.80130371 -367.73828613 367.54010742 -368.34399414 367.27099609 C-370.69277788 365.99153318 -372.19967037 364.63986167 -374.05859375 362.7265625 C-374.69990234 362.07429688 -375.34121094 361.42203125 -376.00195312 360.75 C-376.66130859 360.069375 -377.32066406 359.38875 -378 358.6875 C-383.05417226 353.46702856 -383.05417226 353.46702856 -388.53515625 348.7109375 C-389.20417969 348.16695312 -389.87320313 347.62296875 -390.5625 347.0625 C-390.5625 346.4025 -390.5625 345.7425 -390.5625 345.0625 C-391.2225 345.0625 -391.8825 345.0625 -392.5625 345.0625 C-392.5625 344.4025 -392.5625 343.7425 -392.5625 343.0625 C-393.2225 343.0625 -393.8825 343.0625 -394.5625 343.0625 C-394.5625 342.4025 -394.5625 341.7425 -394.5625 341.0625 C-395.35962402 340.75542114 -395.35962402 340.75542114 -396.17285156 340.44213867 C-399.5606 338.48625735 -402.08512631 335.76443361 -404.796875 332.98828125 C-405.69215912 332.08519478 -405.69215912 332.08519478 -406.60552979 331.16386414 C-408.51267565 329.23894085 -410.41302066 327.30748653 -412.3125 325.375 C-414.19849267 323.46118676 -416.08599276 321.54892605 -417.97662354 319.63969421 C-419.15053032 318.45375235 -420.32175997 317.26515161 -421.48968506 316.07331848 C-424.39134093 313.13702243 -427.35458002 310.33758539 -430.48046875 307.64013672 C-434.72546306 303.9701827 -438.68891302 300.0633081 -442.640625 296.08203125 C-443.37448425 295.34675705 -444.10834351 294.61148285 -444.86444092 293.85392761 C-447.18284553 291.52998153 -449.49773251 289.20256827 -451.8125 286.875 C-453.37997464 285.3025014 -454.94768099 283.73023372 -456.515625 282.15820312 C-459.38326985 279.2824296 -462.24961711 276.40537735 -465.11425781 273.52661133 C-467.59354578 271.03509848 -470.0753021 268.54612206 -472.5625 266.0625 C-472.03350098 265.60568848 -471.50450195 265.14887695 -470.95947266 264.67822266 C-462.23033858 256.99029406 -454.12067923 248.69658328 -445.9375 240.4375 C-443.03164158 237.50481827 -440.12232363 234.57563061 -437.2109375 231.6484375 C-436.23717667 230.66222916 -436.23717667 230.66222916 -435.2437439 229.65609741 C-431.4494394 225.84182898 -427.5311372 222.25148101 -423.45907593 218.7364502 C-420.64050131 216.24872827 -418.00974299 213.59725334 -415.3828125 210.91015625 C-414.27877059 209.79349643 -413.17460046 208.67696337 -412.0703125 207.56054688 C-410.36335405 205.82857351 -408.65807155 204.09500339 -406.95507812 202.35913086 C-405.2894587 200.66349814 -403.61782413 198.97398699 -401.9453125 197.28515625 C-401.43388702 196.76027115 -400.92246155 196.23538605 -400.39553833 195.69459534 C-399.15532171 194.44554841 -397.86316105 193.24847483 -396.5625 192.0625 C-395.9025 192.0625 -395.2425 192.0625 -394.5625 192.0625 C-394.5625 191.4025 -394.5625 190.7425 -394.5625 190.0625 C-393.9025 190.0625 -393.2425 190.0625 -392.5625 190.0625 C-392.5625 189.4025 -392.5625 188.7425 -392.5625 188.0625 C-391.9025 188.0625 -391.2425 188.0625 -390.5625 188.0625 C-390.5625 187.4025 -390.5625 186.7425 -390.5625 186.0625 C-389.9025 186.0625 -389.2425 186.0625 -388.5625 186.0625 C-388.5625 185.4025 -388.5625 184.7425 -388.5625 184.0625 C-387.1640625 182.6875 -387.1640625 182.6875 -385.1875 181.0625 C-380.73328591 177.30027988 -376.70566468 173.20191718 -372.6640625 169.00390625 C-370.5625 167.0625 -370.5625 167.0625 -368.5625 167.0625 C-368.5625 166.4025 -368.5625 165.7425 -368.5625 165.0625 C-367.9025 165.0625 -367.2425 165.0625 -366.5625 165.0625 C-366.5625 164.4025 -366.5625 163.7425 -366.5625 163.0625 C-365.9025 163.0625 -365.2425 163.0625 -364.5625 163.0625 C-364.5625 162.4025 -364.5625 161.7425 -364.5625 161.0625 C-363.21679688 159.74023438 -363.21679688 159.74023438 -361.28125 158.15625 C-357.70641798 155.11638404 -354.33411856 151.92408175 -351.03125 148.59375 C-350.5468042 148.10600098 -350.0623584 147.61825195 -349.56323242 147.11572266 C-348.06099478 145.59993803 -346.56130899 144.08167456 -345.0625 142.5625 C-332.91902408 130.25402053 -332.91902408 130.25402053 -327.67260742 126.0769043 C-325.3564587 124.01024902 -325.3564587 124.01024902 -323.3527832 120.77661133 C-319.53176965 115.42881271 -315.85090763 111.72994223 -309.2230835 110.38470459 C-300.00463492 109.49192725 -290.77942176 109.811704 -281.53833008 110.16986084 C-277.70422621 110.30413424 -273.86899253 110.36248773 -270.03320312 110.42773438 C-262.53989729 110.56614128 -255.05216226 110.78723197 -247.5625 111.0625 C-247.28509979 110.5610849 -247.00769958 110.0596698 -246.72189331 109.5430603 C-245.43792945 107.22349871 -244.15256512 104.90471593 -242.8671875 102.5859375 C-242.43108154 101.79759521 -241.99497559 101.00925293 -241.5456543 100.19702148 C-237.86815635 93.56663897 -234.11107911 86.9904317 -230.15234375 80.5234375 C-228.23948577 77.33317455 -226.59357858 74.08889102 -225.00390625 70.7265625 C-224.5454834 69.82599121 -224.08706055 68.92541992 -223.61474609 67.99755859 C-222.73996653 66.27648066 -221.91801591 64.52689908 -221.16650391 62.74853516 C-219.26800916 59.15798252 -217.4252454 56.79440478 -213.54946899 55.27154541 C-208.25235043 53.69491435 -202.83757735 52.68258837 -197.41464233 51.64257812 C-192.9386375 50.73223348 -188.54902536 49.53979151 -184.14453125 48.3359375 C-182.38093127 47.8623624 -180.61725831 47.38905896 -178.85351562 46.91601562 C-177.96188721 46.67536377 -177.07025879 46.43471191 -176.15161133 46.18676758 C-171.25514859 44.86545885 -166.3559484 43.55436124 -161.45703125 42.2421875 C-160.45962921 41.97480774 -159.46222717 41.70742798 -158.43460083 41.4319458 C-147.63346558 38.53956679 -136.81492437 35.71472631 -125.99517822 32.89294434 C-115.87786105 30.25326853 -105.76739172 27.59022756 -95.66796875 24.8828125 C-94.67032501 24.61559387 -93.67268127 24.34837524 -92.64480591 24.07305908 C-87.8526161 22.789012 -83.06132422 21.50176938 -78.27148438 20.20898438 C-68.67399853 17.62817374 -59.05718987 15.19467501 -49.38169861 12.92355347 C-40.81796142 10.90643251 -32.30420429 8.71339653 -23.79785156 6.46777344 C-21.24397206 5.79443232 -18.68844709 5.12758284 -16.1328125 4.4609375 C-14.49989977 4.03163105 -12.86708314 3.60195887 -11.234375 3.171875 C-10.47421082 2.97398376 -9.71404663 2.77609253 -8.93084717 2.57220459 C-5.77619846 1.73455334 -3.08621774 0.0752736 0 0 Z M-90.49462891 83.71142578 C-91.17375336 83.88710587 -91.85287781 84.06278595 -92.55258179 84.24378967 C-94.02588546 84.62577228 -95.4984645 85.01055841 -96.97038651 85.39783096 C-99.32912998 86.01835318 -101.68971431 86.63138122 -104.0508728 87.24264526 C-109.0981864 88.55083759 -114.14290779 89.86885977 -119.1875 91.1875 C-125.7614198 92.90462589 -132.33650453 94.61717165 -138.9140625 96.3203125 C-139.72302475 96.5298525 -140.531987 96.73939251 -141.36546326 96.95528221 C-152.46417848 99.82345648 -163.58564615 102.48514171 -174.79037476 104.91239929 C-186.91868132 107.5464829 -198.96505358 110.48987955 -210.99511719 113.53930664 C-213.57391738 114.18829479 -216.15311696 114.82882823 -218.73730469 115.45532227 C-222.54553464 116.37876456 -226.34306747 117.34215334 -230.140625 118.30859375 C-231.28847473 118.58174911 -232.43632446 118.85490448 -233.61895752 119.13633728 C-240.45079202 120.92088311 -245.4583969 123.0834239 -249.5625 129.0625 C-249.5625 129.7225 -249.5625 130.3825 -249.5625 131.0625 C-250.2225 131.0625 -250.8825 131.0625 -251.5625 131.0625 C-252.85579379 132.38184183 -252.85579379 132.38184183 -254.25 134.1875 C-257.6499643 138.18541303 -261.32577063 141.71217748 -265.1875 145.25 C-271.79672253 151.33045078 -278.20812066 157.59145682 -284.5625 163.9375 C-285.44631348 164.81688232 -286.33012695 165.69626465 -287.24072266 166.60229492 C-290.93727109 170.30691442 -294.56612568 174.00328757 -297.9375 178.0078125 C-300.77116646 181.31645859 -303.85062564 184.20796641 -307.08691406 187.12207031 C-313.15959437 192.63560274 -319.00408834 198.35732921 -324.796875 204.1640625 C-325.81091046 205.17742177 -326.8250941 206.19063278 -327.8394165 207.20370483 C-329.93493043 209.297764 -332.02867394 211.39357193 -334.12109375 213.49072266 C-336.80767997 216.18308692 -339.49884258 218.87082577 -342.19128036 221.55733681 C-344.27247206 223.63493127 -346.35129676 225.71488088 -348.42938995 227.79557419 C-349.42226992 228.78912158 -350.41589422 229.78192573 -351.41027069 230.77397537 C-352.78601565 232.14719898 -354.15824188 233.52394511 -355.53027344 234.90087891 C-356.31126404 235.6826651 -357.09225464 236.46445129 -357.89691162 237.26992798 C-359.67594718 238.77677356 -359.67594718 238.77677356 -359.5625 240.0625 C-335.22375298 240.45992245 -310.88549321 240.75954498 -286.54415321 240.94330692 C-275.24138449 241.03090695 -263.94063349 241.15028693 -252.63916016 241.3449707 C-242.78661987 241.51461341 -232.93554067 241.6241329 -223.08158052 241.66200441 C-217.86475789 241.68414014 -212.6521142 241.73599247 -207.43663406 241.85991096 C-202.5218916 241.97573277 -197.61302577 242.01082762 -192.69704819 241.98533058 C-190.89808368 241.98999031 -189.09891363 242.02359445 -187.3011322 242.08899307 C-179.19077554 242.42883663 -179.19077554 242.42883663 -171.5625 240.0625 C-167.31004328 235.86443614 -164.87952518 230.4990567 -162.50141788 225.09471118 C-161.21299928 222.30603419 -159.58478421 219.79666065 -157.875 217.25 C-153.13376533 209.8932955 -148.76521421 202.33475024 -144.625 194.625 C-141.91831867 189.62259943 -138.96727864 184.80581478 -135.96484375 179.9765625 C-132.93158904 175.06532976 -129.99919074 170.09436049 -127.0625 165.125 C-126.54099365 164.24416748 -126.0194873 163.36333496 -125.48217773 162.45581055 C-122.53102391 157.45462207 -119.6258431 152.42992716 -116.75390625 147.3828125 C-112.65698478 140.1876682 -108.45554954 133.0564517 -104.22583008 125.9387207 C-102.99542838 123.86730354 -101.76814448 121.79406044 -100.54101562 119.72070312 C-96.01064197 112.08116821 -91.37469238 104.52899639 -86.5625 97.0625 C-85.0717806 94.71518791 -83.59595715 92.35983964 -82.125 90 C-81.10599609 88.37384766 -81.10599609 88.37384766 -80.06640625 86.71484375 C-78.39808706 84.28070914 -78.39808706 84.28070914 -78.5625 82.0625 C-82.81082624 81.85065768 -86.3897051 82.63843611 -90.49462891 83.71142578 Z M-31.5625 109.0625 C-31.5625 110.0525 -31.5625 111.0425 -31.5625 112.0625 C-32.2225 112.3925 -32.8825 112.7225 -33.5625 113.0625 C-34.91309005 115.10082903 -34.91309005 115.10082903 -36.1875 117.5 C-36.85652344 118.70462891 -36.85652344 118.70462891 -37.5390625 119.93359375 C-38.70692287 121.969233 -38.70692287 121.969233 -38.5625 124.0625 C-39.2225 124.0625 -39.8825 124.0625 -40.5625 124.0625 C-40.85640625 124.62453125 -41.1503125 125.1865625 -41.453125 125.765625 C-45.30190761 132.97656254 -49.46921415 139.97052469 -53.68896484 146.96875 C-57.4665255 153.23363598 -61.21638111 159.51391664 -64.9375 165.8125 C-65.47592529 166.72386719 -66.01435059 167.63523437 -66.5690918 168.57421875 C-69.96520883 174.33208715 -73.33681362 180.10382497 -76.69726562 185.88256836 C-85.90609141 201.71766623 -95.23412284 217.48579103 -104.875 233.0625 C-107.94782587 238.04399745 -110.99297532 243.04104007 -114 248.0625 C-114.65705933 249.14144531 -114.65705933 249.14144531 -115.32739258 250.2421875 C-117.4606873 253.82940528 -119.10771425 256.82885808 -119.5625 261.0625 C-120.2225 261.0625 -120.8825 261.0625 -121.5625 261.0625 C-123.24504252 263.78565478 -123.24504252 263.78565478 -123.2878418 266.88793945 C-122.42036239 269.48862577 -121.23392988 271.71240692 -119.89453125 274.10546875 C-119.35393066 275.07661621 -118.81333008 276.04776367 -118.25634766 277.04833984 C-117.69737793 278.0430127 -117.1384082 279.03768555 -116.5625 280.0625 C-116.04606934 280.99400879 -115.52963867 281.92551758 -114.99755859 282.88525391 C-109.18880618 293.35419748 -103.30094814 303.70620319 -96.72265625 313.7109375 C-92.93505307 319.58754424 -89.46614049 325.65115326 -85.94873047 331.69189453 C-84.49733139 334.17394543 -83.03369917 336.64840741 -81.56640625 339.12109375 C-76.2875913 348.01728352 -71.0521272 356.93361343 -65.91210938 365.91088867 C-60.29156509 375.72602966 -54.58872603 385.44515095 -48.41772461 394.92651367 C-45.45300793 399.50834854 -42.92409872 404.14019822 -40.5625 409.0625 C-39.9025 409.0625 -39.2425 409.0625 -38.5625 409.0625 C-38.294375 409.92875 -38.02625 410.795 -37.75 411.6875 C-36.59138013 414.98041964 -35.18040161 417.97377875 -33.5625 421.0625 C-32.9025 421.0625 -32.2425 421.0625 -31.5625 421.0625 C-31.5625 422.0525 -31.5625 423.0425 -31.5625 424.0625 C-30.9025 424.0625 -30.2425 424.0625 -29.5625 424.0625 C-29.34859619 423.30598145 -29.13469238 422.54946289 -28.91430664 421.77001953 C-23.13818644 401.376137 -17.22230627 381.02476229 -11.25 360.6875 C-3.6356823 334.75076868 -3.6356823 334.75076868 3.92050171 308.79705811 C4.46324969 306.92602424 5.00701216 305.05528427 5.5519104 303.18487549 C8.06105709 294.56879891 10.53560965 285.94380277 12.79296875 277.2578125 C13.11289795 276.03336426 13.43282715 274.80891602 13.76245117 273.54736328 C17.83929477 252.50111899 3.94671051 224.42103737 -1.99745941 204.14165115 C-3.05872982 200.51978026 -4.11839327 196.89743926 -5.17822266 193.27514648 C-8.59478126 181.59961605 -12.01514517 169.92520322 -15.44047546 158.25224304 C-16.52817591 154.54534927 -17.61514138 150.83824013 -18.70211792 147.13113403 C-19.40718847 144.72829971 -20.11378573 142.3259186 -20.82055664 139.92358398 C-23.83357416 129.66344329 -26.7254838 119.37265055 -29.5625 109.0625 C-30.2225 109.0625 -30.8825 109.0625 -31.5625 109.0625 Z M-359.5625 293.0625 C-356.01753246 297.27655517 -352.40519711 301.3454775 -348.51025391 305.24414062 C-348.04430313 305.71184372 -347.57835236 306.17954681 -347.09828186 306.66142273 C-345.58102015 308.1830297 -344.06019619 309.70101458 -342.5390625 311.21875 C-341.46806523 312.29042252 -340.39721631 313.36224331 -339.32650757 314.4342041 C-337.09071092 316.67146791 -334.85313443 318.90693179 -332.61425781 321.14111328 C-329.76442279 323.98525859 -326.91909271 326.8338616 -324.07509804 329.68384552 C-321.86683901 331.89574268 -319.65617334 334.10522227 -317.44480515 336.31401062 C-316.39564285 337.36251226 -315.34720496 338.41173935 -314.2995491 339.46174622 C-309.08153219 344.68890207 -303.82050401 349.79767783 -298.21026611 354.60641479 C-296.06236596 356.50445457 -294.18396896 358.56630463 -292.31640625 360.73828125 C-287.43783218 366.26761086 -282.29156742 371.48502993 -277.0690918 376.6862793 C-275.49475845 378.2552236 -273.92588411 379.82948558 -272.35742188 381.40429688 C-267.48147589 386.28254596 -262.54623277 391.01317198 -257.29907227 395.49536133 C-253.93033467 398.53541849 -251.0408367 402.03768369 -248.140625 405.51953125 C-241.16044286 413.45667384 -229.91149236 414.637225 -220.05859375 417.1171875 C-218.53321714 417.50420063 -217.00791441 417.89150506 -215.48268127 418.27908325 C-212.28516727 419.09051569 -209.08686194 419.89872851 -205.88793945 420.70458984 C-201.85918082 421.71971804 -197.83235853 422.74229024 -193.80606461 423.7671442 C-179.24559845 427.47068957 -164.69976353 431.12412294 -149.99256897 434.20497131 C-136.36163457 437.10619185 -122.92086776 440.83597017 -109.45178223 444.4005127 C-104.94616191 445.59273098 -100.43826139 446.77601848 -95.9296875 447.95703125 C-94.75896698 448.26945267 -93.58824646 448.58187408 -92.38204956 448.90376282 C-91.29546051 449.18793564 -90.20887146 449.47210846 -89.08935547 449.76489258 C-87.66452347 450.14198112 -87.66452347 450.14198112 -86.21090698 450.52668762 C-83.58421249 451.05810724 -81.23407286 451.16306097 -78.5625 451.0625 C-80.29180345 445.9263652 -83.24280601 441.60734857 -86.125 437.0625 C-91.69727648 428.1715525 -97.0789684 419.1819517 -102.375 410.125 C-102.72458771 409.52792236 -103.07417542 408.93084473 -103.43435669 408.31567383 C-107.18264092 401.91062478 -110.89756937 395.48772396 -114.5703125 389.0390625 C-118.51868113 382.10954387 -122.55767356 375.23540803 -126.625 368.375 C-127.29337891 367.24255859 -127.96175781 366.11011719 -128.65039062 364.94335938 C-131.74881525 359.71307408 -134.88424305 354.52421462 -138.18359375 349.41796875 C-141.03236268 344.983819 -143.58731586 340.44808231 -146.07519531 335.80371094 C-148.57596378 331.19461239 -151.25921534 326.69502341 -153.9375 322.1875 C-154.50259277 321.23367432 -155.06768555 320.27984863 -155.64990234 319.29711914 C-159.36774224 313.03541022 -163.13285854 306.80626803 -166.9765625 300.62109375 C-168.5625 298.0625 -168.5625 298.0625 -169.69299793 295.44016743 C-171.4132461 292.7142725 -171.4132461 292.7142725 -174.86770916 292.44726086 C-176.2651455 292.42620951 -177.66315935 292.43307044 -179.06047058 292.46122742 C-179.8307417 292.45695529 -180.60101282 292.45268317 -181.39462548 292.44828159 C-183.98396553 292.44002454 -186.57169712 292.4675795 -189.16088867 292.49487305 C-191.01352398 292.49628294 -192.86616209 292.49549269 -194.71879578 292.49266052 C-199.75589096 292.49122266 -204.79239395 292.52067227 -209.82935119 292.55553031 C-215.09041217 292.58673226 -220.35148589 292.58971968 -225.61262512 292.59565735 C-235.57870972 292.61121393 -245.54452093 292.65226698 -255.51048499 292.7024048 C-266.85491922 292.75824181 -278.19936633 292.78577057 -289.54390371 292.81088197 C-312.88358753 292.8631812 -336.22302847 292.95115877 -359.5625 293.0625 Z " fill="#FFFFFF" transform="translate(738.5625,732.9375)"/>
<path d="M0 0 C18.48 0 36.96 0 56 0 C60.50611739 10.13876413 60.50611739 10.13876413 62.11328125 14.42578125 C62.4700293 15.37557861 62.82677734 16.32537598 63.19433594 17.30395508 C63.74782715 18.79318481 63.74782715 18.79318481 64.3125 20.3125 C64.70856445 21.37299561 65.10462891 22.43349121 65.51269531 23.52612305 C68.12093062 30.54299176 70.62461243 37.58957412 73.06054688 44.66772461 C75.46792014 51.60507961 78.0360018 58.4774189 80.6159668 65.35180664 C89.71782971 89.60535246 98.20720797 113.982644 105 139 C105.17426514 138.27039062 105.34853027 137.54078125 105.52807617 136.7890625 C110.80179298 114.97375133 117.44101852 93.74549007 124.52246094 72.45654297 C126.43067921 66.71318609 128.28635651 60.95347044 130.125 55.1875 C130.4243042 54.25260742 130.7236084 53.31771484 131.03198242 52.35449219 C132.98817246 46.22726513 134.91040581 40.08977385 136.82421875 33.94921875 C137.32335513 32.35065176 137.82254148 30.75210038 138.32177734 29.15356445 C139.29650881 26.03233806 140.2661708 22.90959845 141.23291016 19.78588867 C141.68244255 18.34418382 142.13214198 16.90253103 142.58203125 15.4609375 C142.78173019 14.81094284 142.98142914 14.16094818 143.18717957 13.49125671 C146.69296302 2.30703698 146.69296302 2.30703698 149 0 C150.77991924 -0.09370624 152.56356739 -0.11744271 154.34594727 -0.11352539 C156.05760826 -0.11341209 156.05760826 -0.11341209 157.80384827 -0.11329651 C159.0454924 -0.10813522 160.28713654 -0.10297394 161.56640625 -0.09765625 C163.46204567 -0.09553383 163.46204567 -0.09553383 165.39598083 -0.09336853 C168.76124889 -0.08870582 172.1264499 -0.0797148 175.49169922 -0.06866455 C178.9234967 -0.05844846 182.35530109 -0.05387049 185.78710938 -0.04882812 C192.52475824 -0.0377738 199.26237525 -0.0210171 206 0 C206 0.99 206 1.98 206 3 C205.34 3 204.68 3 204 3 C203.75894531 4.23621094 203.51789063 5.47242188 203.26953125 6.74609375 C201.93807259 12.7161826 199.81098679 18.33621537 197.6875 24.0625 C193.45762395 35.66840232 189.57738367 47.36079142 185.8125 59.125 C181.2603872 73.3277558 176.43931205 87.40933959 171.375 101.4375 C166.92418449 113.76946966 162.5444319 126.11136201 158.4375 138.5625 C158.22236755 139.21458435 158.00723511 139.8666687 157.7855835 140.53851318 C157.57000793 141.19208801 157.35443237 141.84566284 157.13232422 142.51904297 C156.6911429 143.85646582 156.24989883 145.19386798 155.80859375 146.53125 C155.58751953 147.20141144 155.36644531 147.87157288 155.13867188 148.56204224 C151.5755145 159.33758174 147.88448565 170.07040058 144.20214844 180.80566406 C143.90801056 181.66319275 143.61387268 182.52072144 143.31082153 183.40423584 C142.72262303 185.11899847 142.1343059 186.83372041 141.54586792 188.54840088 C139.66731163 194.02978644 137.81641716 199.51984189 135.98046875 205.015625 C115.98762854 264.69349179 115.98762854 264.69349179 93 277 C80.45944782 282.89913826 68.12649348 284.1757894 54.3984375 284.09765625 C53.11610229 284.09614563 53.11610229 284.09614563 51.80786133 284.09460449 C48.66356026 284.08943616 45.51927855 284.0754758 42.375 284.0625 C35.32125 284.041875 28.2675 284.02125 21 284 C21 268.82 21 253.64 21 238 C33.8125 237.6875 33.8125 237.6875 37.78051758 237.61206055 C47.71313571 237.30435677 57.41932465 236.32026294 65.34375 229.80859375 C70.58254728 224.08792597 72.33444333 216.1055002 72.21777344 208.53344727 C71.28418591 197.67264257 68.02856142 187.18749483 64.5 176.9375 C64.06242047 175.64757069 63.62517264 174.35752882 63.18823242 173.06738281 C56.82149505 154.36915797 50.00222384 135.80990578 42.73046875 117.4453125 C40.90224034 112.79730324 39.16339024 108.11578358 37.41381836 103.43778992 C34.53950773 95.75782609 31.61671184 88.09665882 28.6875 80.4375 C28.40653473 79.70187836 28.12556946 78.96625671 27.83609009 78.20834351 C24.33956835 69.05480843 20.79660652 59.92234391 17.1875 50.8125 C13.81058741 42.27179864 10.72311155 33.65156596 7.75463867 24.9609375 C5.61442833 18.70233617 3.32940795 12.54418576 0.8125 6.42578125 C0 4 0 4 0 0 Z " fill="#FFFFFF" transform="translate(1528,895)"/>
<path d="M0 0 C17.82 0 35.64 0 54 0 C54.01458252 4.10711426 54.02916504 8.21422852 54.04418945 12.44580078 C54.09463109 26.0484528 54.16109521 39.65098751 54.23571491 53.25352669 C54.28054819 61.49696697 54.31999107 69.74036524 54.34643555 77.98388672 C54.36951718 85.17474259 54.40302716 92.36546414 54.44870156 99.55621326 C54.47249777 103.35840923 54.49131508 107.1604733 54.49761391 110.96274185 C54.50372711 114.55301313 54.52394674 118.14294752 54.55427551 121.73309326 C54.56704782 123.65550801 54.56550299 125.57800187 54.5632782 127.50045776 C54.69633671 140.02719538 55.90676699 151.08335712 64.3125 160.625 C73.00461245 168.3064017 83.38443766 170.59615869 94.796875 170.28515625 C104.92283713 169.38369865 114.54472687 165.92410774 121.6875 158.5 C131.62798009 146.22466296 133.2908727 132.04774359 133.31884766 116.81762695 C133.32889328 115.54805649 133.3389389 114.27848602 133.34928894 112.97044373 C133.37633731 109.52493648 133.39166262 106.07946952 133.40471697 102.63388467 C133.42045903 99.01972658 133.44721326 95.40564946 133.4727478 91.79154968 C133.51934113 84.96374826 133.55617865 78.13593126 133.58942068 71.3080532 C133.62778038 63.52796835 133.67715376 55.74796522 133.72740483 47.96794951 C133.83043507 31.97869227 133.91978847 15.989389 134 0 C141.52969652 -0.02526648 149.0593822 -0.04283141 156.58911133 -0.05493164 C159.15291757 -0.0599737 161.71672091 -0.06680714 164.28051758 -0.07543945 C167.95655021 -0.08751064 171.63254498 -0.09322942 175.30859375 -0.09765625 C177.03981728 -0.10539818 177.03981728 -0.10539818 178.80601501 -0.11329651 C179.86703934 -0.11337204 180.92806366 -0.11344757 182.02124023 -0.11352539 C182.96055893 -0.115746 183.89987762 -0.11796661 184.86766052 -0.12025452 C187 0 187 0 188 1 C188.10008432 3.72886132 188.134397 6.4324844 188.12698364 9.16186523 C188.12854363 10.02772719 188.13010362 10.89358915 188.13171089 11.78568935 C188.1357247 14.71000773 188.13252977 17.63427491 188.12939453 20.55859375 C188.1307484 22.64576244 188.13252825 24.73293089 188.13470459 26.82009888 C188.1392806 32.50588181 188.13748868 38.19164669 188.1343255 43.87742996 C188.13180276 49.81338807 188.1341392 55.74934457 188.13571167 61.68530273 C188.13753362 71.65576456 188.13512639 81.62621899 188.13037109 91.59667969 C188.12492843 103.14204342 188.12669107 114.6873895 188.1321975 126.2327528 C188.13672791 136.12570186 188.13737953 146.01864558 188.13475883 155.91159534 C188.13319566 161.82883303 188.13300338 167.7460624 188.13629532 173.66329956 C188.13917299 179.22490139 188.13720026 184.78648034 188.13140106 190.34807968 C188.1300729 192.39560788 188.13046852 194.44313798 188.13266373 196.49066544 C188.13537306 199.27318167 188.13199679 202.05562335 188.12698364 204.83813477 C188.12921436 205.65942084 188.13144509 206.48070692 188.13374341 207.32688046 C188.11414983 212.88585017 188.11414983 212.88585017 187 214 C185.40389018 214.09333705 183.80366572 214.11745372 182.20483398 214.11352539 C181.18385117 214.11344986 180.16286835 214.11337433 179.11094666 214.11329651 C178.0005452 214.10813522 176.89014374 214.10297394 175.74609375 214.09765625 C174.61551041 214.0962413 173.48492706 214.09482635 172.32008362 214.09336853 C168.69252935 214.08775019 165.06503576 214.07519458 161.4375 214.0625 C158.98502693 214.05748736 156.5325529 214.05292405 154.08007812 214.04882812 C148.05336187 214.0377748 142.02669124 214.02049788 136 214 C135.67 206.74 135.34 199.48 135 192 C132.916875 194.165625 130.83375 196.33125 128.6875 198.5625 C114.61640004 212.79879595 98.38330805 220.11296263 78.33276367 220.38061523 C54.59848369 220.34207196 36.48820547 215.39711196 18.7265625 198.88671875 C17 197 17 197 17 195 C16.34 195 15.68 195 15 195 C3.20645404 176.2707955 -0.3468037 157.66659149 -0.22705078 135.54931641 C-0.22648493 134.05958565 -0.2268066 132.56985434 -0.22793579 131.0801239 C-0.22850354 127.08309615 -0.2168442 123.08619139 -0.20278788 119.08919191 C-0.19018287 114.89454066 -0.18910239 110.69988578 -0.18673706 106.50521851 C-0.18055074 98.58310602 -0.16417897 90.66104954 -0.14403808 82.73896158 C-0.12158979 73.71100522 -0.11066332 64.68304601 -0.10064721 55.65506864 C-0.07980982 37.10334101 -0.04316972 18.55169003 0 0 Z " fill="#FFFFFF" transform="translate(903,895)"/>
<path d="M0 0 C4.33289344 3.3348812 8.18377078 7.09474522 12 11 C12.88751953 11.83917969 12.88751953 11.83917969 13.79296875 12.6953125 C25.41646981 24.59927338 31.12151515 45.32648151 31.12698364 61.48530579 C31.12980347 62.77106003 31.13262329 64.05681427 31.13552856 65.38153076 C31.1335846 66.79382338 31.13153645 68.20611587 31.12939453 69.6184082 C31.13075046 71.11518903 31.13253148 72.61196953 31.13470459 74.10874939 C31.13925411 78.16205932 31.13750009 82.21534374 31.1343255 86.26865411 C31.13179144 90.50960372 31.13414215 94.75055116 31.13571167 98.99150085 C31.13752931 106.107375 31.13513664 113.22323876 31.13037109 120.33911133 C31.1249188 128.57576492 31.12669976 136.81239381 31.1321975 145.04904681 C31.13672772 152.11834148 31.13737994 159.18762868 31.13475883 166.25692433 C31.1331969 170.48058076 31.13300022 174.70422555 31.13629532 178.92788124 C31.13917307 182.89314375 31.13720016 186.85837417 31.13140106 190.82363319 C31.13007339 192.28258206 31.1304677 193.7415336 31.13266373 195.20048141 C31.13537465 197.18352414 31.13138092 199.16657273 31.12698364 201.14961243 C31.1264181 202.81789077 31.1264181 202.81789077 31.12584114 204.51987171 C31 207 31 207 30 208 C28.37872577 208.09861598 26.75317632 208.12798767 25.12890625 208.12939453 C24.09113037 208.13254669 23.05335449 208.13569885 21.98413086 208.13894653 C20.29042358 208.13591019 20.29042358 208.13591019 18.5625 208.1328125 C17.41209229 208.13376923 16.26168457 208.13472595 15.07641602 208.13571167 C12.63850856 208.13639369 10.2005993 208.1345379 7.76269531 208.13037109 C4.01623482 208.12502317 0.26989423 208.13031539 -3.4765625 208.13671875 C-5.83854193 208.13605797 -8.20052129 208.13477682 -10.5625 208.1328125 C-11.69163818 208.13483673 -12.82077637 208.13686096 -13.98413086 208.13894653 C-15.54079468 208.13421829 -15.54079468 208.13421829 -17.12890625 208.12939453 C-18.04744385 208.12859894 -18.96598145 208.12780334 -19.91235352 208.12698364 C-22 208 -22 208 -23 207 C-23.09985637 205.21519682 -23.12909238 203.42641749 -23.13130188 201.63882446 C-23.13731415 199.89363525 -23.13731415 199.89363525 -23.14344788 198.1131897 C-23.1426548 196.18084976 -23.1426548 196.18084976 -23.1418457 194.20947266 C-23.14487581 192.84787889 -23.14839686 191.48628615 -23.15237427 190.12469482 C-23.16027942 187.18414827 -23.16541444 184.24361393 -23.16866493 181.30305862 C-23.17457027 176.64563531 -23.19110946 171.98828865 -23.21000671 167.3309021 C-23.21634492 165.73626905 -23.22267054 164.14163594 -23.22898388 162.54700279 C-23.23214969 161.74811032 -23.2353155 160.94921785 -23.23857725 160.12611651 C-23.28062539 149.28054349 -23.31358637 138.43500447 -23.32592773 127.58935547 C-23.33433172 120.27911518 -23.35691498 112.96906301 -23.3952834 105.65891683 C-23.4149785 101.79250025 -23.42747089 97.92636448 -23.42244911 94.05989456 C-23.41777192 90.4137486 -23.43177338 86.76813248 -23.45946121 83.1220932 C-23.46957023 81.16211763 -23.4601705 79.20207102 -23.44996643 77.24209595 C-23.55572155 67.13402525 -25.49812537 56.3952129 -33 49 C-42.34190483 41.29533622 -53.95164857 37.99597071 -66 39 C-75.45326761 40.13062337 -85.54796144 43.65379306 -92 51 C-101.85063381 64.48093204 -104.28780534 77.41005611 -104.31884766 93.90698242 C-104.33391609 95.76744705 -104.33391609 95.76744705 -104.34928894 97.66549683 C-104.3746888 101.03047671 -104.39165972 104.39529182 -104.40471697 107.76032805 C-104.42046314 111.29040556 -104.44721601 114.82040024 -104.4727478 118.35041809 C-104.51933399 125.01884695 -104.55617491 131.68729175 -104.58942068 138.35579902 C-104.6277855 145.95451 -104.67715749 153.55313738 -104.72740483 161.15177763 C-104.83042445 176.76779713 -104.91832871 192.38385203 -105 208 C-122.49 208 -139.98 208 -158 208 C-158 137.05 -158 66.1 -158 -7 C-140.84 -7 -123.68 -7 -106 -7 C-105.67 1.91 -105.34 10.82 -105 20 C-103.02 17.36 -101.04 14.72 -99 12 C-74.89734984 -16.43930123 -30.45590478 -20.80733991 0 0 Z " fill="#FFFFFF" transform="translate(1274,902)"/>
<path d="M0 0 C17.49 0 34.98 0 53 0 C53.33 21.78 53.66 43.56 54 66 C64.56 66 75.12 66 86 66 C86 78.87 86 91.74 86 105 C75.11 105 64.22 105 53 105 C53.06296278 120.09958839 53.13821718 135.19900609 53.23571491 150.29840755 C53.28059839 157.31000702 53.32002999 164.32155654 53.34643555 171.33325195 C53.37194384 178.10256185 53.41289849 184.87163946 53.46318626 191.64081001 C53.47984425 194.22068059 53.49136515 196.80058973 53.49761391 199.38050652 C53.5072662 202.99991998 53.53534079 206.61876438 53.56762695 210.23803711 C53.56619186 211.29971603 53.56475677 212.36139496 53.5632782 213.45524597 C53.65491082 220.74037076 54.06489995 228.06489995 59.4375 233.4375 C68.44230251 237.38697479 77.19716822 237 87 237 C87 251.19 87 265.38 87 280 C64.73932579 283.71011237 38.51396476 283.15663972 19 271 C8.14528355 263.17376538 2.27102887 253.0633243 0 240 C-0.08616803 238.09272642 -0.12203053 236.18282358 -0.12025452 234.27360535 C-0.12162918 233.13082123 -0.12300385 231.98803711 -0.12442017 230.81062317 C-0.12082489 229.56624985 -0.11722961 228.32187653 -0.11352539 227.03979492 C-0.11367142 225.72233276 -0.11381744 224.40487061 -0.1139679 223.04748535 C-0.11425444 219.44251081 -0.10838074 215.83756963 -0.10139394 212.23260283 C-0.09513668 208.462306 -0.09455472 204.69200838 -0.09336853 200.92170715 C-0.09026221 193.78554889 -0.08205825 186.64940597 -0.07201904 179.51325446 C-0.06083619 171.38753949 -0.05534198 163.26182379 -0.05032361 155.13610303 C-0.03987506 138.42405829 -0.02153826 121.71203469 0 105 C-9.57 105 -19.14 105 -29 105 C-29 92.13 -29 79.26 -29 66 C-19.76 66 -10.52 66 -1 66 C-0.67 44.22 -0.34 22.44 0 0 Z " fill="#FFFFFF" transform="translate(1428,829)"/>
<path d="M0 0 C1.03777588 -0.00315216 2.07555176 -0.00630432 3.14477539 -0.009552 C4.83848267 -0.00651566 4.83848267 -0.00651566 6.56640625 -0.00341797 C7.71681396 -0.00437469 8.86722168 -0.00533142 10.05249023 -0.00631714 C12.49039769 -0.00699916 14.92830695 -0.00514337 17.36621094 -0.00097656 C21.11267143 0.00437136 24.85901202 -0.00092086 28.60546875 -0.00732422 C30.96744818 -0.00666344 33.32942754 -0.00538229 35.69140625 -0.00341797 C36.82054443 -0.0054422 37.94968262 -0.00746643 39.11303711 -0.009552 C40.15081299 -0.00639984 41.18858887 -0.00324768 42.2578125 0 C43.1763501 0.00079559 44.0948877 0.00159119 45.04125977 0.00241089 C47.12890625 0.12939453 47.12890625 0.12939453 48.12890625 1.12939453 C48.22899003 3.85601967 48.26330334 6.55738566 48.25588989 9.28453064 C48.25744988 10.14968703 48.25900987 11.01484343 48.26061714 11.90621668 C48.26463098 14.82820109 48.261436 17.75013427 48.25830078 20.67211914 C48.25965466 22.75766531 48.26143452 24.84321124 48.26361084 26.92875671 C48.26818703 32.6104747 48.26639478 38.29217461 48.26323175 43.97389293 C48.26070877 49.90671384 48.26304555 55.83953316 48.26461792 61.77235413 C48.26643994 71.73861978 48.26403261 81.70487804 48.25927734 91.67114258 C48.25383615 103.2085339 48.25559621 114.74590754 48.26110375 126.28329843 C48.26563574 136.17116763 48.26628496 146.05903149 48.26366508 155.94690138 C48.26210259 161.86025855 48.26190776 167.7736074 48.26520157 173.68696404 C48.26808147 179.24610665 48.26610237 184.8052264 48.26030731 190.36436653 C48.25898029 192.40986213 48.25937285 194.45535964 48.26156998 196.50085449 C48.26428377 199.28302095 48.26089747 202.06511312 48.25588989 204.84727478 C48.25812061 205.66564802 48.26035134 206.48402125 48.26264966 207.32719368 C48.24305618 212.90109467 48.24305618 212.90109467 47.12890625 215.12939453 C39.74162523 215.15466146 32.35435527 215.17222614 24.96704102 215.18432617 C22.4517373 215.18936816 19.93643653 215.19620156 17.42114258 215.20483398 C13.8146085 215.21690547 10.20811302 215.22262402 6.6015625 215.22705078 C4.90314964 215.23479271 4.90314964 215.23479271 3.17042542 215.24269104 C2.12942184 215.24276657 1.08841827 215.2428421 0.01586914 215.24291992 C-1.36646156 215.24625084 -1.36646156 215.24625084 -2.77671814 215.24964905 C-4.87109375 215.12939453 -4.87109375 215.12939453 -5.87109375 214.12939453 C-5.9711852 211.38791709 -6.0054899 208.67156101 -5.99807739 205.92956543 C-5.99963738 205.05961992 -6.00119737 204.18967441 -6.00280464 203.29336691 C-6.00681848 200.35522908 -6.00362351 197.4171422 -6.00048828 194.47900391 C-6.00184215 192.38198313 -6.003622 190.28496259 -6.00579834 188.1879425 C-6.01037437 182.47530095 -6.00858242 176.76267736 -6.00541925 171.05003548 C-6.00289652 165.08605016 -6.00523295 159.12206643 -6.00680542 153.15808105 C-6.00862737 143.14054079 -6.00622014 133.12300789 -6.00146484 123.10546875 C-5.99602218 111.50557347 -5.99778482 99.90569577 -6.00329125 88.30580091 C-6.00782165 78.36614312 -6.00847329 68.42649063 -6.00585258 58.48683214 C-6.0042894 52.54164879 -6.00409714 46.59647372 -6.00738907 40.65129089 C-6.01026673 35.06342428 -6.00829403 29.47558043 -6.00249481 23.88771629 C-6.00116665 21.83051275 -6.00156227 19.77330731 -6.00375748 17.71610451 C-6.00646678 14.92045121 -6.00309056 12.12487212 -5.99807739 9.32922363 C-6.00030811 8.50404661 -6.00253884 7.67886958 -6.00483716 6.82868719 C-5.9808992 0.00518037 -5.9808992 0.00518037 0 0 Z " fill="#FFFFFF" transform="translate(1336.87109375,894.87060546875)"/>
<path d="M0 0 C17.49 0 34.98 0 53 0 C54.13905319 2.27810639 54.1266699 3.5369637 54.12939453 6.06665039 C54.13254669 6.90414322 54.13569885 7.74163605 54.13894653 8.60450745 C54.1369223 9.50974655 54.13489807 10.41498566 54.1328125 11.34765625 C54.13376923 12.27468857 54.13472595 13.20172089 54.13571167 14.15684509 C54.13639276 16.11799182 54.1345434 18.0791408 54.13037109 20.0402832 C54.12501582 23.05359927 54.13032158 26.06676668 54.13671875 29.08007812 C54.13605807 30.98177116 54.13477713 32.88346411 54.1328125 34.78515625 C54.13483673 35.69241959 54.13686096 36.59968292 54.13894653 37.53443909 C54.11495378 43.88504622 54.11495378 43.88504622 53 45 C51.34261557 45.09346915 49.68125356 45.11744977 48.02124023 45.11352539 C46.96021591 45.11344986 45.89919159 45.11337433 44.80601501 45.11329651 C43.07479149 45.10555458 43.07479149 45.10555458 41.30859375 45.09765625 C40.13361832 45.0962413 38.95864288 45.09482635 37.74806213 45.09336853 C33.97784936 45.08774992 30.20769496 45.07519426 26.4375 45.0625 C23.88867273 45.0574874 21.33984453 45.05292408 18.79101562 45.04882812 C12.52730291 45.03862331 6.26371716 45.01905152 0 45 C0 30.15 0 15.3 0 0 Z " fill="#FFFFFF" transform="translate(1331,829)"/>
</svg>
